<svg xmlns="http://www.w3.org/2000/svg" viewBox="0 0 64 64">
  <circle cx="32" cy="32" r="30" fill="#25d366"/>
  <path d="M45 19.5A17.5 17.5 0 0 0 18.5 36L18 45l9-0.5A17.5 17.5 0 0 0 45 19.5z" fill="rgba(3,11,2,0.2)"/>
  <path d="M29 20c-3 0-5 1-7 3-2 2-3 4-3 8 0 4 1 6 3 8s4 3 8 3 6-1 8-3 3-4 3-8c0-4-1-6-3-8-2-2-4-3-8-3z" fill="none" stroke="#fff" stroke-width="3" stroke-linecap="round" stroke-linejoin="round"/>
  <path d="M27 29l2 2 5-5" fill="none" stroke="#fff" stroke-width="3" stroke-linecap="round" stroke-linejoin="round"/>
</svg>
